<svg id="sw-js-blob-svg" viewBox="0 0 100 100" xmlns="http://www.w3.org/2000/svg" version="1.1">
	<defs>
		<clipPath id="blobClip">
			<path id="blobPath" d="M22.2,-31.2C27.9,-26.4,31.1,-18.8,33.6,-11C36.1,-3.1,37.8,4.9,35.1,10.8C32.3,16.8,25.1,20.7,18.5,24.6C11.9,28.5,5.9,32.5,-0.5,33.2C-6.9,33.8,-13.8,31.2,-21,27.4C-28.1,23.7,-35.5,18.8,-38.4,12C-41.3,5.2,-39.7,-3.6,-35.5,-10.1C-31.4,-16.5,-24.7,-20.7,-18.4,-25.2C-12,-29.8,-6,-34.8,1.1,-36.4C8.2,-37.9,16.5,-35.9,22.2,-31.2Z" transform="translate(50,50)" />
		</clipPath>
	</defs>
	<image href="./jellyfish.jpg" width="100" height="100" clip-path="url(#blobClip)" />
</svg>