<svg width="24" height="24" viewBox="0 0 24 24" fill="none" xmlns="http://www.w3.org/2000/svg">
<path d="M4.5 15.5003V15.5V6.00001C4.5 5.20437 4.70494 4.62784 5.06464 4.21585C5.46048 3.76248 5.99015 3.40642 6.67208 3.15646C7.37407 2.89915 8.18542 2.72346 9.11073 2.63472C10.0535 2.54431 11.0165 2.49935 11.9997 2.50001H12C13.0862 2.50001 14.1081 2.54544 15.066 2.6358C16.008 2.72465 16.8123 2.90029 17.4858 3.15555C18.1395 3.4033 18.6309 3.75446 18.9833 4.19871C19.3104 4.61116 19.5 5.19431 19.5 6.00001V15.5C19.5 16.3553 19.2122 17.0562 18.6343 17.6346C18.0567 18.2128 17.3561 18.5006 16.5003 18.5L15.2921 18.4992L16.1464 19.3536L17.2929 20.5H16.2071L14.3536 18.6465L14.2071 18.5H14H10H9.79289L9.64645 18.6465L7.79289 20.5H6.70711L7.85355 19.3536L8.70711 18.5H7.5C6.64473 18.5 5.94385 18.2122 5.36538 17.6343C4.78719 17.0567 4.49942 16.3561 4.5 15.5003ZM5.5 10V10.5H6H11H11.5V10V7.00001V6.50001H11H6H5.5V7.00001V10ZM12.5 10V10.5H13H18H18.5V10V7.00001V6.50001H18H13H12.5V7.00001V10ZM8.5 16.5C9.05402 16.5 9.54334 16.3138 9.92855 15.9286C10.3138 15.5434 10.5 15.054 10.5 14.5C10.5 13.946 10.3138 13.4567 9.92855 13.0715C9.54334 12.6862 9.05402 12.5 8.5 12.5C7.94598 12.5 7.45666 12.6862 7.07145 13.0715C6.68624 13.4567 6.5 13.946 6.5 14.5C6.5 15.054 6.68624 15.5434 7.07145 15.9286C7.45666 16.3138 7.94598 16.5 8.5 16.5ZM15.5 16.5C16.054 16.5 16.5433 16.3138 16.9286 15.9286C17.3138 15.5434 17.5 15.054 17.5 14.5C17.5 13.946 17.3138 13.4567 16.9286 13.0715C16.5433 12.6862 16.054 12.5 15.5 12.5C14.946 12.5 14.4567 12.6862 14.0714 13.0715C13.6862 13.4567 13.5 13.946 13.5 14.5C13.5 15.054 13.6862 15.5434 14.0714 15.9286C14.4567 16.3138 14.946 16.5 15.5 16.5Z" stroke="#2730D9"/>
</svg>
