<svg width="24" height="24" viewBox="0 0 24 24" fill="none" xmlns="http://www.w3.org/2000/svg">
<path d="M9.5 14H8.5V9C8.5 8.60218 8.65804 8.22064 8.93934 7.93934C9.22064 7.65804 9.60218 7.5 10 7.5H13C13.3978 7.5 13.7794 7.65804 14.0607 7.93934C14.342 8.22064 14.5 8.60218 14.5 9V14H13.5H13V14.5V21.5H10V14.5V14H9.5ZM11.5 2.5C11.8978 2.5 12.2794 2.65804 12.5607 2.93934C12.842 3.22064 13 3.60218 13 4C13 4.39782 12.842 4.77936 12.5607 5.06066C12.2794 5.34196 11.8978 5.5 11.5 5.5C11.1022 5.5 10.7206 5.34196 10.4393 5.06066C10.158 4.77936 10 4.39782 10 4C10 3.60218 10.158 3.22064 10.4393 2.93934C10.7206 2.65804 11.1022 2.5 11.5 2.5Z" stroke="#FDFDFD"/>
</svg>
