<svg width="20" height="19" viewBox="0 0 20 19" fill="none" xmlns="http://www.w3.org/2000/svg">
<path d="M4.74991 16.1061C3.28248 16.1061 2.09089 14.9145 2.09089 13.4471V7.95799C2.09089 6.49057 3.28248 5.29897 4.74991 5.29897H7.54684C7.93853 5.29897 8.25849 5.61894 8.25849 6.01062C8.25849 6.01614 8.25849 6.02165 8.25849 6.02717C8.25849 6.03269 8.25849 6.0382 8.25849 6.04372V7.31255C8.25849 7.70423 7.93853 8.02419 7.54684 8.02419C7.15516 8.02419 6.8352 7.70423 6.8352 7.31255V6.72227H4.74991C4.06584 6.72227 3.50866 7.27945 3.50866 7.96351V13.4471C3.50866 14.1311 4.06584 14.6883 4.74991 14.6883H6.8352V13.3643C6.8352 12.9726 7.15516 12.6527 7.54684 12.6527C7.93853 12.6527 8.25849 12.9726 8.25849 13.3643V14.6883H17.201C17.885 14.6883 18.4422 14.1311 18.4422 13.4471V7.95799C18.4422 7.27393 17.885 6.71675 17.201 6.71675H10.7134C10.3217 6.71675 10.0017 6.39679 10.0017 6.0051C10.0017 5.61342 10.3217 5.29346 10.7134 5.29346H17.201C18.6684 5.29897 19.86 6.49057 19.86 7.95799V13.4415C19.86 14.909 18.6684 16.1006 17.201 16.1006H4.75542L4.74991 16.1061Z" fill="white"/>
<path d="M0.711545 8.23438C1.10323 8.23438 1.42319 8.55434 1.42319 8.94602V13.7234C1.42319 15.2736 2.87958 16.8017 4.35804 16.8017H16.7815C17.1732 16.8017 17.4932 17.1217 17.4932 17.5134C17.4932 17.905 17.1732 18.225 16.7815 18.225H4.35253C2.07415 18.225 -0.000102597 16.079 -0.000102597 13.7289V8.94602C-0.000102597 8.55434 0.319863 8.23438 0.711545 8.23438Z" fill="white"/>
<path d="M7.54678 11.6101C7.1551 11.6101 6.83513 11.2901 6.83513 10.8984V9.62962C6.83513 9.23793 7.1551 8.91797 7.54678 8.91797C7.93846 8.91797 8.25842 9.23793 8.25842 9.62962V10.8984C8.25842 11.2901 7.93846 11.6101 7.54678 11.6101Z" fill="white"/>
<path d="M17.0407 3.02083C17.0407 4.55111 15.8001 5.79165 14.2698 5.79165C12.7396 5.79165 11.499 4.55111 11.499 3.02083C11.499 1.49054 12.7396 0.25 14.2698 0.25C15.8001 0.25 17.0407 1.49054 17.0407 3.02083Z" fill="#FDFDFD" stroke="#2730d9" stroke-width="0.5"/>
<path d="M9.00154 10.9505L9.25039 10.9744C9.45884 8.8055 11.5958 7.04688 14.2699 7.04688C16.9426 7.04688 19.0788 8.80377 19.289 10.9712C19.2898 10.9847 19.2879 10.9983 19.2833 11.0111C19.2786 11.0244 19.2711 11.0366 19.2613 11.0468C19.2515 11.0571 19.2397 11.0652 19.2266 11.0706C19.2136 11.076 19.1995 11.0786 19.1853 11.0782L19.1853 11.0781H19.1787H9.36102C9.28437 11.0781 9.24609 11.0199 9.25043 10.974L9.00154 10.9505ZM9.00154 10.9505C9.22508 8.62447 11.4983 6.79688 14.2699 6.79688C17.0415 6.79688 19.3146 8.62447 19.5382 10.9505C19.5419 10.9995 19.5353 11.0487 19.5188 11.095C19.5023 11.1413 19.4762 11.1836 19.4424 11.2192C19.4085 11.2548 19.3675 11.2829 19.3221 11.3016C19.2767 11.3204 19.2278 11.3294 19.1787 11.3281L9.00154 10.9505Z" fill="#FDFDFD" stroke="#2730d9" stroke-width="0.5"/>
</svg>
