<svg width="26" height="26" viewBox="0 0 26 26" fill="none" xmlns="http://www.w3.org/2000/svg">
<path d="M5.5 15H4.5V10C4.5 9.60218 4.65804 9.22064 4.93934 8.93934C5.22064 8.65804 5.60218 8.5 6 8.5H9C9.39782 8.5 9.77936 8.65804 10.0607 8.93934C10.342 9.22064 10.5 9.60218 10.5 10V15H9.5H9V15.5V22.5H6V15.5V15H5.5ZM17.9368 9.57148L20.3011 16.5H18H17.5V17V22.5H15.5V17V16.5H15H12.6989L15.0632 9.57148L15.0659 9.56369L15.0683 9.55581C15.2554 8.94187 15.8245 8.5 16.5 8.5C17.1755 8.5 17.7446 8.94187 17.9317 9.55581L17.9341 9.56369L17.9368 9.57148ZM7.5 3.5C7.89782 3.5 8.27936 3.65804 8.56066 3.93934C8.84196 4.22064 9 4.60218 9 5C9 5.39782 8.84196 5.77936 8.56066 6.06066C8.27936 6.34196 7.89782 6.5 7.5 6.5C7.10218 6.5 6.72064 6.34196 6.43934 6.06066C6.15804 5.77936 6 5.39782 6 5C6 4.60218 6.15804 4.22064 6.43934 3.93934C6.72064 3.65804 7.10218 3.5 7.5 3.5ZM16.5 3.5C16.8978 3.5 17.2794 3.65804 17.5607 3.93934C17.842 4.22064 18 4.60218 18 5C18 5.39782 17.842 5.77936 17.5607 6.06066C17.2794 6.34196 16.8978 6.5 16.5 6.5C16.1022 6.5 15.7206 6.34196 15.4393 6.06066C15.158 5.77936 15 5.39782 15 5C15 4.60218 15.158 4.22064 15.4393 3.93934C15.7206 3.65804 16.1022 3.5 16.5 3.5Z" stroke="#FDFDFD"/>
</svg>
