<svg width="24" height="24" viewBox="0 0 24 24" fill="none" xmlns="http://www.w3.org/2000/svg">
<mask id="path-1-inside-1_87_36" fill="white">
<path d="M5 1C5 3.7 6.56 6.16 9 7.32V22H11V15H13V22H15V7.31C17.44 6.16 19 3.7 19 1H17C17 2.32608 16.4732 3.59785 15.5355 4.53553C15.0712 4.99983 14.52 5.36812 13.9134 5.6194C13.3068 5.87067 12.6566 6 12 6C10.6739 6 9.40215 5.47322 8.46447 4.53553C7.52678 3.59785 7 2.32608 7 1M12 1C10.89 1 10 1.89 10 3C10 4.11 10.89 5 12 5C13.11 5 14 4.11 14 3C14 1.89 13.11 1 12 1Z"/>
</mask>
<path d="M9 7.32H10V6.68815L9.42936 6.41687L9 7.32ZM9 22H8V23H9V22ZM11 22V23H12V22H11ZM11 15V14H10V15H11ZM13 15H14V14H13V15ZM13 22H12V23H13V22ZM15 22V23H16V22H15ZM15 7.31L14.5737 6.40543L14 6.67581V7.31H15ZM19 1H20V0H19V1ZM17 1V0H16L16 1L17 1ZM4 1C4 4.08753 5.78352 6.89811 8.57064 8.22313L9.42936 6.41687C7.33648 5.42189 6 3.31247 6 1H4ZM8 7.32V22H10V7.32H8ZM9 23H11V21H9V23ZM12 22V15H10V22H12ZM11 16H13V14H11V16ZM12 15V22H14V15H12ZM13 23H15V21H13V23ZM16 22V7.31H14V22H16ZM15.4263 8.21457C18.2167 6.89941 20 4.08691 20 1H18C18 3.31309 16.6633 5.42059 14.5737 6.40543L15.4263 8.21457ZM19 0H17V2H19V0ZM16 1C16 2.06087 15.5786 3.07828 14.8284 3.82843L16.2426 5.24264C17.3679 4.11742 18 2.5913 18 1L16 1ZM14.8284 3.82843C14.457 4.19986 14.016 4.4945 13.5307 4.69552L14.2961 6.54328C15.0241 6.24175 15.6855 5.79979 16.2426 5.24264L14.8284 3.82843ZM13.5307 4.69552C13.0454 4.89654 12.5253 5 12 5V7C12.7879 7 13.5681 6.84481 14.2961 6.54328L13.5307 4.69552ZM12 5C10.9391 5 9.92172 4.57857 9.17157 3.82843L7.75736 5.24264C8.88258 6.36786 10.4087 7 12 7V5ZM9.17157 3.82843C8.42143 3.07828 8 2.06087 8 1H6C6 2.5913 6.63214 4.11742 7.75736 5.24264L9.17157 3.82843ZM12 0C10.3377 0 9 1.33772 9 3H11C11 2.44228 11.4423 2 12 2V0ZM9 3C9 4.66228 10.3377 6 12 6V4C11.4423 4 11 3.55772 11 3H9ZM12 6C13.6623 6 15 4.66228 15 3H13C13 3.55772 12.5577 4 12 4V6ZM15 3C15 1.33772 13.6623 0 12 0V2C12.5577 2 13 2.44228 13 3H15Z" fill="#2730D9" mask="url(#path-1-inside-1_87_36)"/>
</svg>
