<svg width="24" height="24" viewBox="0 0 24 24" fill="none" xmlns="http://www.w3.org/2000/svg">
<path d="M20.5 15.6667H20V16.1667V22.1667H17.75V14.1083C17.75 12.5663 17.0436 11.3046 15.9042 10.5332L16.7453 8.10325C17.0128 7.39576 17.6075 6.91667 18.3333 6.91667H18.4417C19.1663 6.91667 19.7603 7.39421 20.0284 8.09981L22.5175 15.6667H20.5ZM6.95833 14.5833H6.45833V15.0833V22.1667H3.125V15.0833V14.5833H2.625H1.5V8.58333C1.5 7.66781 2.25114 6.91667 3.16667 6.91667H6.41667C7.33219 6.91667 8.08333 7.66781 8.08333 8.58333V14.5833H6.95833ZM14 17.8333H13.5V18.3333V22.1667H11.25V18.3333V17.8333H10.75H10.1667V14C10.1667 13.4095 10.7011 12.875 11.2917 12.875H13.4583C14.0489 12.875 14.5833 13.4095 14.5833 14V17.8333H14ZM16.6667 3.16667C16.6667 2.25114 17.4178 1.5 18.3333 1.5C19.2489 1.5 20 2.25114 20 3.16667C20 4.08219 19.2489 4.83333 18.3333 4.83333C17.4178 4.83333 16.6667 4.08219 16.6667 3.16667ZM13.5 9.66667C13.5 10.2572 12.9655 10.7917 12.375 10.7917C11.7845 10.7917 11.25 10.2572 11.25 9.66667C11.25 9.07614 11.7845 8.54167 12.375 8.54167C12.9655 8.54167 13.5 9.07614 13.5 9.66667ZM6.45833 3.16667C6.45833 4.08219 5.70719 4.83333 4.79167 4.83333C3.87614 4.83333 3.125 4.08219 3.125 3.16667C3.125 2.25114 3.87614 1.5 4.79167 1.5C5.70719 1.5 6.45833 2.25114 6.45833 3.16667Z" stroke="#FDFDFD"/>
</svg>
