<svg width="24" height="24" viewBox="0 0 24 24" fill="none" xmlns="http://www.w3.org/2000/svg">
<path d="M13.4822 18.9553L13.719 18.288C13.7602 18.1721 13.7894 18.0523 13.8061 17.9306L13.8458 17.6423L14.1161 17.5344C15.176 17.1113 16.0847 16.3847 16.7267 15.4477C17.3684 14.5111 17.7148 13.4065 17.7222 12.2744C17.7236 10.849 17.1811 9.47537 16.2029 8.4303L15.8714 8.07617L16.2153 7.73411L16.7107 7.24134L16.7108 7.24128C16.741 7.21127 16.7635 7.17498 16.7768 7.13538C16.7768 7.13535 16.7768 7.13532 16.7768 7.13529L17.3275 5.49643L17.3276 5.4961C17.3436 5.4486 17.3459 5.39774 17.3344 5.34908C17.3229 5.3004 17.2978 5.25544 17.2616 5.21943L15.6113 3.58146L15.611 3.58114C15.5747 3.54507 15.5287 3.51941 15.4779 3.50748C15.427 3.49555 15.3738 3.49794 15.3243 3.51432L15.3243 3.51433L13.6756 4.06034L13.4822 18.9553ZM13.4822 18.9553H14.1902M13.4822 18.9553H14.1902M14.1902 18.9553H18.2222C18.297 18.9553 18.368 18.9848 18.4199 19.0363C18.4716 19.0876 18.5 19.1565 18.5 19.2276C18.5 19.2987 18.4716 19.3676 18.4199 19.419C18.3681 19.4705 18.297 19.5 18.2222 19.5H5.77778C5.70298 19.5 5.63195 19.4705 5.58012 19.419C5.52841 19.3676 5.5 19.2987 5.5 19.2276C5.5 19.1565 5.52841 19.0876 5.58012 19.0363C5.63195 18.9848 5.70299 18.9553 5.77778 18.9553H9.80978H10.5212L10.2802 18.2859C10.2429 18.1823 10.2152 18.0757 10.1974 17.9672L10.1488 17.6716L9.8653 17.575C8.83319 17.2232 7.91024 16.6133 7.18534 15.8045L7.03631 15.6382H6.813H5.77778C5.70298 15.6382 5.63195 15.6086 5.58012 15.5572C5.52841 15.5058 5.5 15.4369 5.5 15.3658C5.5 15.2947 5.52841 15.2258 5.58012 15.1745C5.63195 15.123 5.70299 15.0935 5.77778 15.0935H8.88889C8.96368 15.0935 9.03471 15.123 9.08654 15.1745C9.13787 15.2254 9.16624 15.2937 9.16666 15.3642C9.16598 15.4191 9.14786 15.4728 9.11435 15.5176C9.08047 15.5628 9.03249 15.5967 8.97698 15.6136L7.909 15.9398L8.86353 16.5192C9.16587 16.7028 9.4841 16.8591 9.81441 16.9863L10.213 17.1399L10.4269 16.7701C10.5837 16.4991 10.809 16.273 11.0812 16.1143C11.3534 15.9556 11.6628 15.87 11.9789 15.8661C12.295 15.8623 12.6064 15.9403 12.8825 16.0923C13.1586 16.2443 13.3895 16.4649 13.5529 16.732L13.787 17.1146L14.1927 16.9233C15.0774 16.5062 15.8262 15.8493 16.3525 15.0278C16.8788 14.2062 17.1611 13.2535 17.1667 12.2792L17.1667 12.2768C17.1679 11.0081 16.6935 9.78494 15.8368 8.8454L15.4852 8.45976M14.1902 18.9553L15.4852 8.45976M13.5667 4.12715L13.5664 4.12744L8.61748 9.04193C8.61746 9.04195 8.61745 9.04197 8.61743 9.04199C8.56577 9.09333 8.53739 9.1622 8.53739 9.23326C8.53739 9.30435 8.56579 9.37324 8.61748 9.42459L8.97477 9.7795L8.6173 10.1342L7.51597 11.2271L7.5159 11.2272C7.49023 11.2527 7.47006 11.2827 7.45636 11.3155C7.44267 11.3483 7.43567 11.3834 7.43567 11.4187C7.43567 11.454 7.44267 11.489 7.45636 11.5218C7.47006 11.5546 7.49023 11.5847 7.5159 11.6101L7.51593 11.6102L9.16637 13.2476L9.16648 13.2477C9.21831 13.2991 9.28933 13.3287 9.36411 13.3287C9.43889 13.3287 9.50991 13.2991 9.56174 13.2477L9.56181 13.2476L10.6616 12.1563L11.0139 11.8066L11.3661 12.1564L11.3676 12.1579L13.5667 4.12715ZM13.5667 4.12715C13.597 4.09705 13.6342 4.0741 13.6754 4.06039L13.5667 4.12715ZM15.4852 8.45976L15.1149 8.82758M15.4852 8.45976L15.1149 8.82758M15.1149 8.82758L11.7628 12.1579L15.1149 8.82758ZM9.01205 12.3201L9.36436 12.6695L9.71643 12.3199L10.2663 11.7738L10.6233 11.4193L10.2666 11.0645L9.71668 10.5177L9.36436 10.1673L9.0118 10.5174L8.46113 11.0643L8.1036 11.4193L8.46138 11.7741L9.01205 12.3201ZM16.1861 6.9874L16.2699 6.90409L16.3076 6.79204L16.6483 5.7787L16.7474 5.48381L16.5267 5.26459L15.5568 4.30145L15.3389 4.08506L15.0473 4.18157L14.0277 4.51909L13.916 4.55606L13.8325 4.63897L9.56324 8.87847L9.20639 9.23284L9.56282 9.58763L11.2117 11.2289L11.5641 11.5797L11.9169 11.2292L16.1861 6.9874ZM11.5652 12.2389C11.4905 12.2389 11.4195 12.2093 11.3677 12.1579L11.7627 12.158C11.7109 12.2094 11.6399 12.2389 11.5652 12.2389ZM11.2914 18.7417C11.5015 18.8811 11.7481 18.9553 12 18.9553C12.3378 18.9553 12.6624 18.8221 12.9023 18.5838C13.1423 18.3455 13.2778 18.0215 13.2778 17.6829C13.2778 17.4305 13.2024 17.184 13.0615 16.9747C12.9207 16.7654 12.7209 16.6028 12.4878 16.5069C12.2548 16.4111 11.9985 16.386 11.7514 16.4349C11.5042 16.4837 11.2766 16.6043 11.0977 16.782C10.9188 16.9597 10.7965 17.1865 10.7469 17.434C10.6973 17.6815 10.7228 17.938 10.82 18.171C10.9171 18.4039 11.0814 18.6023 11.2914 18.7417Z" stroke="#2730D9"/>
</svg>
