<?xml version="1.0" encoding="UTF-8"?>
<svg id="a" data-name="レイヤー 1" xmlns="http://www.w3.org/2000/svg" viewBox="0 0 48 48">
  <defs>
    <style>
      .b {
        fill: #2730d9;
        stroke-width: 0px;
      }
    </style>
  </defs>
  <path class="b" d="m36.34,11.39v-2.53c0-1.13-.92-2.05-2.05-2.05s-2.05.92-2.05,2.05v2.07h-9.86c-1.13,0-2.05.92-2.05,2.05s.92,2.05,2.05,2.05h9.86v.79c0,1.13.92,2.05,2.05,2.05s2.05-.92,2.05-2.05v-.33c1.44.16,2.57,1.37,2.57,2.85v15.87c0,1.59-1.29,2.88-2.88,2.88H11.98c-1.59,0-2.88-1.29-2.88-2.88v-15.87c0-1.59,1.29-2.88,2.88-2.88.12,0,.23-.05.35-.07v.43c0,1.13.92,2.05,2.05,2.05s2.05-.92,2.05-2.05v-6.95c0-1.13-.92-2.05-2.05-2.05s-2.05.92-2.05,2.05v2.57c-.12-.02-.22-.07-.35-.07-3.85,0-6.98,3.13-6.98,6.98v15.87c0,3.85,3.13,6.98,6.98,6.98h24.05c3.85,0,6.98-3.13,6.98-6.98v-15.87c0-3.74-2.97-6.78-6.66-6.94Z"/>
  <path class="b" d="m14.38,21.1c-1.01,0-1.83.82-1.83,1.83s.82,1.83,1.83,1.83,1.83-.82,1.83-1.83-.82-1.83-1.83-1.83Z"/>
  <path class="b" d="m20.86,24.76c1.01,0,1.83-.82,1.83-1.83s-.82-1.83-1.83-1.83-1.83.82-1.83,1.83.82,1.83,1.83,1.83Z"/>
  <path class="b" d="m27.34,24.76c1.01,0,1.83-.82,1.83-1.83s-.82-1.83-1.83-1.83-1.83.82-1.83,1.83.82,1.83,1.83,1.83Z"/>
  <path class="b" d="m33.81,24.76c1.01,0,1.83-.82,1.83-1.83s-.82-1.83-1.83-1.83-1.83.82-1.83,1.83.82,1.83,1.83,1.83Z"/>
  <path class="b" d="m14.38,27.58c-1.01,0-1.83.82-1.83,1.83s.82,1.83,1.83,1.83,1.83-.82,1.83-1.83-.82-1.83-1.83-1.83Z"/>
  <path class="b" d="m20.86,31.24c1.01,0,1.83-.82,1.83-1.83s-.82-1.83-1.83-1.83-1.83.82-1.83,1.83.82,1.83,1.83,1.83Z"/>
  <path class="b" d="m27.34,31.24c1.01,0,1.83-.82,1.83-1.83s-.82-1.83-1.83-1.83-1.83.82-1.83,1.83.82,1.83,1.83,1.83Z"/>
  <path class="b" d="m33.81,31.24c1.01,0,1.83-.82,1.83-1.83s-.82-1.83-1.83-1.83-1.83.82-1.83,1.83.82,1.83,1.83,1.83Z"/>
</svg>