<svg width="24" height="19" viewBox="0 0 24 19" fill="none" xmlns="http://www.w3.org/2000/svg">
<path d="M4.75034 16.6947C3.28275 16.6947 2.09103 15.5029 2.09103 14.0353V8.54569C2.09103 7.0781 3.28275 5.88638 4.75034 5.88638H7.54758C7.9393 5.88638 8.2593 6.20638 8.2593 6.5981C8.2593 6.60362 8.2593 6.60914 8.2593 6.61465C8.2593 6.62017 8.2593 6.62569 8.2593 6.6312V7.90017C8.2593 8.29189 7.9393 8.61189 7.54758 8.61189C7.15585 8.61189 6.83585 8.29189 6.83585 7.90017V7.30982H4.75034C4.0662 7.30982 3.50896 7.86707 3.50896 8.5512V14.0353C3.50896 14.7195 4.0662 15.2767 4.75034 15.2767H6.83585V13.9526C6.83585 13.5609 7.15585 13.2409 7.54758 13.2409C7.9393 13.2409 8.2593 13.5609 8.2593 13.9526V15.2767H17.2028C17.8869 15.2767 18.4441 14.7195 18.4441 14.0353V8.54569C18.4441 7.86155 17.8869 7.30431 17.2028 7.30431H10.7145C10.3228 7.30431 10.0027 6.98431 10.0027 6.59258C10.0027 6.20086 10.3228 5.88086 10.7145 5.88086H17.2028C18.6703 5.88638 19.8621 7.0781 19.8621 8.54569V14.0298C19.8621 15.4974 18.6703 16.6891 17.2028 16.6891H4.75585L4.75034 16.6947Z" fill="white"/>
<path d="M7.54755 12.1983C7.15583 12.1983 6.83583 11.8783 6.83583 11.4865V10.2176C6.83583 9.82586 7.15583 9.50586 7.54755 9.50586C7.93928 9.50586 8.25928 9.82586 8.25928 10.2176V11.4865C8.25928 11.8783 7.93928 12.1983 7.54755 12.1983Z" fill="white"/>
<path d="M0.71167 8.82178C1.10339 8.82178 1.42339 9.14178 1.42339 9.5335V14.3114C1.42339 15.8618 2.87994 17.3901 4.35856 17.3901H16.7834C17.1751 17.3901 17.4951 17.7101 17.4951 18.1018C17.4951 18.4935 17.1751 18.8135 16.7834 18.8135H4.35305C2.07443 18.8135 -5.4656e-05 16.6673 -5.4656e-05 14.3169V9.5335C-5.4656e-05 9.14178 0.319946 8.82178 0.71167 8.82178Z" fill="white"/>
<path d="M9.62193 10.581C10.0803 9.16872 10.828 7.80643 11.969 6.67629C13.3739 5.28473 15.3899 4.23038 18.2376 3.87781L18.4568 3.85066V3.62971V1.30823L23.6182 5.78143L18.4568 10.2546V7.86143V7.61143H18.2068C14.4649 7.61143 11.6896 8.541 9.62193 10.581Z" fill="#FDFDFD" stroke="#2730d9" stroke-width="0.5"/>
</svg>
