<?xml version="1.0" encoding="UTF-8"?>
<svg id="a" data-name="レイヤー 1" xmlns="http://www.w3.org/2000/svg" viewBox="0 0 36 24">
  <defs>
    <style>
      .b {
        fill: #2730d9;
        stroke-width: 0px;
      }
    </style>
  </defs>
  <path class="b" d="m27.39,19.88c2.66,0,4.82-2.16,4.82-4.82V5.11c0-2.66-2.16-4.82-4.82-4.82h-5.07c-.71,0-1.29.58-1.29,1.29,0,.01,0,.02,0,.03,0,.01,0,.02,0,.03v2.3c0,.71.58,1.29,1.29,1.29s1.29-.58,1.29-1.29v-1.07h3.78c1.24,0,2.25,1.01,2.25,2.25v9.94c0,1.24-1.01,2.25-2.25,2.25h-3.78v-2.4c0-.71-.58-1.29-1.29-1.29s-1.29.58-1.29,1.29v2.4H4.82c-1.24,0-2.25-1.01-2.25-2.25V5.11c0-1.24,1.01-2.25,2.25-2.25h11.76c.71,0,1.29-.58,1.29-1.29s-.58-1.29-1.29-1.29H4.82C2.16.29,0,2.45,0,5.11v9.94c0,2.66,2.16,4.82,4.82,4.82h22.56Z"/>
  <path class="b" d="m22.32,11.73c.71,0,1.29-.58,1.29-1.29v-2.3c0-.71-.58-1.29-1.29-1.29s-1.29.58-1.29,1.29v2.3c0,.71.58,1.29,1.29,1.29Z"/>
  <path class="b" d="m34.71,5.61c-.71,0-1.29.58-1.29,1.29v8.66c0,2.81-2.64,5.58-5.32,5.58H5.58c-.71,0-1.29.58-1.29,1.29s.58,1.29,1.29,1.29h22.53c4.13,0,7.89-3.89,7.89-8.15V6.9c0-.71-.58-1.29-1.29-1.29Z"/>
</svg>